<?xml version="1.0" encoding="UTF-8" standalone="no"?>
<!DOCTYPE svg PUBLIC "-//W3C//DTD SVG 1.1//EN" "http://www.w3.org/Graphics/SVG/1.1/DTD/svg11.dtd">
<svg width="100%" height="100%" viewBox="0 0 500 500" version="1.1" xmlns="http://www.w3.org/2000/svg" xmlns:xlink="http://www.w3.org/1999/xlink" xml:space="preserve" xmlns:serif="http://www.serif.com/" style="fill-rule:evenodd;clip-rule:evenodd;stroke-linejoin:round;stroke-miterlimit:2;">
    <g transform="matrix(1.33868,0,0,1.29446,-56.5029,-69.1905)">
        <path d="M362.757,383.246C364.534,382.775 366.402,383.58 367.28,385.195C368.159,386.81 367.82,388.815 366.459,390.052C356.627,398.867 345.738,406.8 333.851,413.663C240.92,467.316 121.913,435.428 68.259,342.498C14.606,249.567 46.494,130.56 139.424,76.906C151.3,70.05 163.602,64.59 176.137,60.477C177.895,59.914 179.81,60.626 180.774,62.201C181.737,63.775 181.5,65.804 180.199,67.114C122.519,126.417 108.571,219.035 151.954,294.177C195.343,369.329 282.547,403.558 362.757,383.246ZM390.483,259.635C390.723,259.173 391.201,258.883 391.722,258.883C392.243,258.883 392.721,259.173 392.961,259.635L398.745,270.76C399.084,271.414 399.571,271.979 400.167,272.412C400.763,272.845 401.451,273.133 402.177,273.254L414.544,275.316C415.059,275.402 415.482,275.767 415.643,276.262C415.804,276.758 415.676,277.302 415.31,277.674L406.517,286.611C406.001,287.136 405.613,287.774 405.386,288.474C405.158,289.175 405.097,289.918 405.206,290.646L407.066,303.046C407.144,303.561 406.928,304.077 406.506,304.383C406.085,304.689 405.528,304.735 405.061,304.503L393.843,298.902C393.185,298.573 392.459,298.402 391.722,298.402C390.986,298.402 390.26,298.573 389.601,298.902L378.383,304.503C377.917,304.735 377.36,304.689 376.938,304.383C376.517,304.077 376.301,303.561 376.378,303.046L378.238,290.646C378.348,289.918 378.286,289.175 378.059,288.474C377.831,287.774 377.444,287.136 376.927,286.611L368.134,277.674C367.769,277.302 367.64,276.758 367.801,276.262C367.962,275.767 368.386,275.402 368.9,275.316L381.268,273.254C381.994,273.133 382.682,272.845 383.278,272.412C383.873,271.979 384.36,271.414 384.7,270.76L390.483,259.635ZM244.845,243.865C245.009,243.55 245.334,243.353 245.689,243.353C246.043,243.353 246.368,243.55 246.532,243.865L250.468,251.436C250.699,251.88 251.03,252.265 251.435,252.56C251.841,252.854 252.309,253.05 252.803,253.133L261.22,254.536C261.569,254.595 261.858,254.843 261.967,255.18C262.077,255.517 261.99,255.888 261.741,256.14L255.757,262.223C255.405,262.58 255.142,263.014 254.987,263.491C254.832,263.967 254.79,264.473 254.865,264.969L256.131,273.407C256.183,273.757 256.036,274.108 255.749,274.317C255.462,274.525 255.083,274.557 254.766,274.398L247.132,270.587C246.684,270.363 246.19,270.246 245.689,270.246C245.188,270.246 244.693,270.363 244.245,270.587L236.611,274.398C236.294,274.557 235.915,274.525 235.628,274.317C235.341,274.108 235.194,273.757 235.247,273.407L236.513,264.969C236.587,264.473 236.545,263.967 236.39,263.491C236.235,263.014 235.972,262.58 235.621,262.223L229.637,256.14C229.388,255.888 229.301,255.517 229.41,255.18C229.52,254.843 229.808,254.595 230.158,254.536L238.574,253.133C239.068,253.05 239.537,252.854 239.942,252.56C240.347,252.265 240.679,251.88 240.91,251.436L244.845,243.865ZM346.979,198.175C347.106,197.931 347.358,197.777 347.634,197.777C347.909,197.777 348.161,197.931 348.288,198.175L351.344,204.052C351.523,204.397 351.78,204.696 352.095,204.925C352.41,205.153 352.773,205.306 353.157,205.37L359.691,206.459C359.962,206.505 360.186,206.697 360.271,206.959C360.356,207.221 360.289,207.508 360.095,207.705L355.45,212.427C355.177,212.704 354.972,213.041 354.852,213.411C354.732,213.781 354.7,214.173 354.757,214.558L355.74,221.109C355.781,221.381 355.667,221.654 355.444,221.815C355.221,221.977 354.927,222.002 354.681,221.879L348.754,218.92C348.406,218.746 348.023,218.655 347.634,218.655C347.245,218.655 346.861,218.746 346.513,218.92L340.587,221.879C340.34,222.002 340.046,221.977 339.823,221.815C339.6,221.654 339.486,221.381 339.527,221.109L340.51,214.558C340.568,214.173 340.535,213.781 340.415,213.411C340.295,213.041 340.09,212.704 339.817,212.427L335.172,207.705C334.979,207.508 334.911,207.221 334.996,206.959C335.081,206.697 335.305,206.505 335.576,206.459L342.11,205.37C342.494,205.306 342.858,205.153 343.172,204.925C343.487,204.696 343.744,204.397 343.924,204.052L346.979,198.175ZM282.387,54.524C282.729,53.865 283.41,53.451 284.153,53.451C284.896,53.451 285.577,53.865 285.92,54.524L294.165,70.384C294.649,71.315 295.343,72.121 296.192,72.738C297.041,73.355 298.022,73.766 299.058,73.939L316.689,76.879C317.422,77.001 318.026,77.521 318.255,78.228C318.485,78.934 318.302,79.71 317.781,80.239L305.245,92.981C304.509,93.73 303.957,94.639 303.632,95.637C303.308,96.635 303.22,97.696 303.376,98.734L306.028,116.41C306.138,117.145 305.83,117.88 305.229,118.317C304.628,118.753 303.834,118.819 303.17,118.487L287.177,110.502C286.238,110.034 285.203,109.789 284.153,109.789C283.104,109.789 282.068,110.034 281.129,110.502L265.137,118.487C264.472,118.819 263.678,118.753 263.077,118.317C262.476,117.88 262.168,117.145 262.279,116.41L264.931,98.734C265.087,97.696 264.999,96.635 264.674,95.637C264.35,94.639 263.798,93.73 263.062,92.981L250.526,80.239C250.005,79.71 249.822,78.934 250.052,78.228C250.281,77.521 250.885,77.001 251.618,76.879L269.249,73.939C270.284,73.766 271.265,73.355 272.115,72.738C272.964,72.121 273.658,71.315 274.142,70.384L282.387,54.524Z" style="fill:white;"/>
    </g>
</svg>
